<?xml version="1.0" standalone="no"?><!DOCTYPE svg PUBLIC "-//W3C//DTD SVG 1.1//EN" "http://www.w3.org/Graphics/SVG/1.1/DTD/svg11.dtd"><svg t="1531722029060" class="icon" style="" viewBox="0 0 1024 1024" version="1.1" xmlns="http://www.w3.org/2000/svg" p-id="1865" xmlns:xlink="http://www.w3.org/1999/xlink" width="200" height="200"><defs><style type="text/css"></style></defs><path d="M512 1024C229.376 1024 0 794.624 0 512S229.376 0 512 0s512 229.376 512 512-229.376 512-512 512z m0-949.248C271.36 74.752 75.776 271.36 75.776 512S271.36 949.248 512 949.248 949.248 752.64 949.248 512 752.64 74.752 512 74.752z m0 753.664a45.44 45.44 0 0 1-45.056-45.056V444.416c0-25.6 20.48-45.056 45.056-45.056s45.056 19.456 45.056 45.056V783.36A45.44 45.44 0 0 1 512 828.416z m0-474.112c-24.576 0-45.056-20.48-45.056-46.08V240.64c0-24.576 20.48-45.056 45.056-45.056s45.056 20.48 45.056 45.056v67.584c0 25.6-20.48 46.08-45.056 46.08z" p-id="1866"></path></svg>